# xmcd
#
# Track frame offsets:
#	150
#	11600
#	25335
#	37547
#
# Disc length: 648 seconds
# Revision: 0
# Processed by: cddbd v1.5.2PL0 Copyright (c) Steve Scherf et al.
# Submitted via: dBpowerAMP V12.0
#
DISCID=1e028604
DTITLE=Drifters, the - The Drifters - 3" single cd
DYEAR=1989
DGENRE=R&B
TTITLE0=Saturday Night At The Movies
TTITLE1=On Broadway
TTITLE2=Under The Boardwalk
TTITLE3=Save The Last Dance For Me
EXTD=
EXTT0=
EXTT1=
EXTT2=
EXTT3=
PLAYORDER=
